<svg viewBox="0 0 299 105" fill="none" xmlns="http://www.w3.org/2000/svg" class="mr-3 ml-3 h-7"><path d="M20.6304 71.7096C22.7794 71.7096 23.2951 71.6225 24.5845 71.6225C28.7965 71.6225 31.8051 74.4105 31.8051 78.5924C31.8051 83.2971 27.6791 86.5206 21.7478 86.5206C15.9026 86.5206 10.5731 83.4713 7.4785 78.5924L0 85.388C4.12607 92.1837 12.1203 96.2785 21.49 96.2785C34.0401 96.2785 42.6361 88.873 42.6361 78.331C42.6361 72.4066 39.9713 67.1792 35.7593 65.0882V64.8269C38.9398 62.5617 41.0888 58.2055 41.0888 53.3266C41.0888 49.2317 39.5415 45.6597 36.8768 42.9588H38.596L42.5501 35.292V34.8564H21.5759C10.1433 34.8564 1.97708 42.4361 1.97708 53.2394C1.97708 63.9556 10.1433 71.7096 20.6304 71.7096ZM12.5501 53.2394C12.5501 48.3605 16.3324 44.44 21.49 44.44C26.7335 44.44 30.6017 48.4476 30.6017 53.2394C30.6017 58.2926 26.7335 62.126 21.49 62.126C16.2464 62.126 12.5501 58.2926 12.5501 53.2394Z" fill="url(#paint0_linear_704_3926)"></path><path d="M73.3223 34.8564C68.5085 34.8564 64.4684 36.5988 62.4913 39.6482H62.0615V34.8564H50.6289V78.8538H62.4054V54.2849C62.4054 48.709 66.6174 44.9627 73.3223 44.9627V34.8564Z" fill="url(#paint1_linear_704_3926)"></path><path d="M101.853 76.0658L102.197 78.8538H112.942V48.6219C112.942 37.9928 107.698 33.7238 94.2883 33.7238C90.2481 33.7238 86.38 34.0722 82.5977 35.0306L81.2224 44.9627C84.231 43.8301 88.529 43.046 92.3972 43.046C98.5003 43.046 101.251 45.1369 101.251 49.4931V51.8455C98.8441 50.103 95.4057 49.0575 91.4516 49.0575C81.8241 49.0575 75.1192 55.2433 75.1192 64.4784C75.1192 73.7135 81.7381 80.1606 91.1937 80.1606C95.6636 80.1606 99.2739 78.6795 101.423 76.0658H101.853ZM86.294 64.3041C86.294 60.2964 89.5605 57.3342 94.1163 57.3342C98.5863 57.3342 101.767 60.2964 101.767 64.3041C101.767 68.4861 98.5863 71.4483 94.1163 71.4483C89.5605 71.4483 86.294 68.4861 86.294 64.3041Z" fill="url(#paint2_linear_704_3926)"></path><path d="M159.851 78.8538V48.0991C159.851 39.4739 154.091 33.5495 145.323 33.5495C140.08 33.5495 135.61 35.7276 133.547 38.864H133.203V34.8564H121.684V78.8538H133.461V52.4553C133.461 46.9665 136.47 43.4816 141.283 43.4816C145.581 43.4816 148.16 46.3567 148.16 51.5841V78.8538H159.851Z" fill="url(#paint3_linear_704_3926)"></path><path d="M166.373 56.8115C166.373 70.4899 175.914 80.1606 189.754 80.1606C203.593 80.1606 213.135 70.4899 213.135 56.8115C213.135 43.2202 203.593 33.5495 189.754 33.5495C175.914 33.5495 166.373 43.2202 166.373 56.8115ZM177.204 56.7244C177.204 49.0575 182.447 43.3945 189.754 43.3945C197.06 43.3945 202.304 49.0575 202.304 56.7244C202.304 64.6526 197.06 70.3157 189.754 70.3157C182.447 70.3157 177.204 64.6526 177.204 56.7244Z" fill="url(#paint4_linear_704_3926)"></path><path d="M231.888 17.4316H220.112V78.8538H231.888V17.4316Z" fill="url(#paint5_linear_704_3926)"></path><path d="M265.68 76.0658L266.024 78.8538H276.769V48.6219C276.769 37.9928 271.526 33.7238 258.116 33.7238C254.076 33.7238 250.208 34.0722 246.425 35.0306L245.05 44.9627C248.059 43.8301 252.357 43.046 256.225 43.046C262.328 43.046 265.079 45.1369 265.079 49.4931V51.8455C262.672 50.103 259.233 49.0575 255.279 49.0575C245.652 49.0575 238.947 55.2433 238.947 64.4784C238.947 73.7135 245.566 80.1606 255.021 80.1606C259.491 80.1606 263.102 78.6795 265.251 76.0658H265.68ZM250.122 64.3041C250.122 60.2964 253.388 57.3342 257.944 57.3342C262.414 57.3342 265.594 60.2964 265.594 64.3041C265.594 68.4861 262.414 71.4483 257.944 71.4483C253.388 71.4483 250.122 68.4861 250.122 64.3041Z" fill="url(#paint6_linear_704_3926)"></path><rect x="284.666" y="1.35965" width="13.0362" height="102.402" rx="6.51808" fill="url(#paint7_linear_704_3926)" stroke="white" stroke-width="1.40179" style="stroke: white; stroke-opacity: 1;"></rect><defs><linearGradient id="paint0_linear_704_3926" x1="142.628" y1="17.4316" x2="142.628" y2="96.2785" gradientUnits="userSpaceOnUse"><stop stop-color="#005723" style="stop-color: rgb(0, 87, 35); stop-opacity: 1;"></stop><stop offset="1" stop-color="#004126" style="stop-color: rgb(0, 65, 38); stop-opacity: 1;"></stop></linearGradient><linearGradient id="paint1_linear_704_3926" x1="142.628" y1="17.4316" x2="142.628" y2="96.2785" gradientUnits="userSpaceOnUse"><stop stop-color="#005723" style="stop-color: rgb(0, 87, 35); stop-opacity: 1;"></stop><stop offset="1" stop-color="#004126" style="stop-color: rgb(0, 65, 38); stop-opacity: 1;"></stop></linearGradient><linearGradient id="paint2_linear_704_3926" x1="142.628" y1="17.4316" x2="142.628" y2="96.2785" gradientUnits="userSpaceOnUse"><stop stop-color="#005723" style="stop-color: rgb(0, 87, 35); stop-opacity: 1;"></stop><stop offset="1" stop-color="#004126" style="stop-color: rgb(0, 65, 38); stop-opacity: 1;"></stop></linearGradient><linearGradient id="paint3_linear_704_3926" x1="142.628" y1="17.4316" x2="142.628" y2="96.2785" gradientUnits="userSpaceOnUse"><stop stop-color="#005723" style="stop-color: rgb(0, 87, 35); stop-opacity: 1;"></stop><stop offset="1" stop-color="#004126" style="stop-color: rgb(0, 65, 38); stop-opacity: 1;"></stop></linearGradient><linearGradient id="paint4_linear_704_3926" x1="142.628" y1="17.4316" x2="142.628" y2="96.2785" gradientUnits="userSpaceOnUse"><stop stop-color="#005723" style="stop-color: rgb(0, 87, 35); stop-opacity: 1;"></stop><stop offset="1" stop-color="#004126" style="stop-color: rgb(0, 65, 38); stop-opacity: 1;"></stop></linearGradient><linearGradient id="paint5_linear_704_3926" x1="142.628" y1="17.4316" x2="142.628" y2="96.2785" gradientUnits="userSpaceOnUse"><stop stop-color="#005723" style="stop-color: rgb(0, 87, 35); stop-opacity: 1;"></stop><stop offset="1" stop-color="#004126" style="stop-color: rgb(0, 65, 38); stop-opacity: 1;"></stop></linearGradient><linearGradient id="paint6_linear_704_3926" x1="142.628" y1="17.4316" x2="142.628" y2="96.2785" gradientUnits="userSpaceOnUse"><stop stop-color="#005723" style="stop-color: rgb(0, 87, 35); stop-opacity: 1;"></stop><stop offset="1" stop-color="#004126" style="stop-color: rgb(0, 65, 38); stop-opacity: 1;"></stop></linearGradient><linearGradient id="paint7_linear_704_3926" x1="291.184" y1="2.06055" x2="291.184" y2="103.061" gradientUnits="userSpaceOnUse"><stop stop-color="#74E34C" style="stop-color: rgb(116, 227, 76); stop-opacity: 1;"></stop><stop offset="1" stop-color="#7EFF7B" style="stop-color: rgb(126, 255, 123); stop-opacity: 1;"></stop></linearGradient></defs></svg>